<svg width="51" height="51" viewBox="0 0 51 51" fill="none" xmlns="http://www.w3.org/2000/svg">
<path d="M38.7137 0H11.8511C5.30593 0 0 5.30593 0 11.8511V38.7137C0 45.2589 5.30593 50.5648 11.8511 50.5648H38.7137C45.2589 50.5648 50.5648 45.2589 50.5648 38.7137V11.8511C50.5648 5.30593 45.2589 0 38.7137 0Z" fill="#242938"/>
<mask id="mask0_59_92" style="mask-type:luminance" maskUnits="userSpaceOnUse" x="12" y="5" width="27" height="41">
<path d="M12.0488 5.53052H38.3899V45.0343H12.0488V5.53052Z" fill="white"/>
</mask>
<g mask="url(#mask0_59_92)">
<path d="M18.6363 45.034C22.2707 45.034 25.2202 42.0844 25.2202 38.4501V31.866H18.6363C15.002 31.866 12.0522 34.8157 12.0522 38.4501C12.0522 42.0844 15.002 45.034 18.6363 45.034Z" fill="#0ACF83"/>
<path d="M12.0522 25.2826C12.0522 21.6483 15.002 18.6987 18.6363 18.6987H25.2202V31.8665H18.6363C15.002 31.8665 12.0522 28.917 12.0522 25.2826Z" fill="#A259FF"/>
<path d="M12.0522 12.1144C12.0522 8.48007 15.002 5.53052 18.6363 5.53052H25.2202V18.6985H18.6363C15.002 18.6985 12.0522 15.7488 12.0522 12.1144Z" fill="#F24E1E"/>
<path d="M25.2192 5.53052H31.8031C35.4375 5.53052 38.3872 8.48007 38.3872 12.1144C38.3872 15.7488 35.4375 18.6985 31.8031 18.6985H25.2192V5.53052Z" fill="#FF7262"/>
<path d="M38.3872 25.2826C38.3872 28.917 35.4375 31.8665 31.8031 31.8665C28.1688 31.8665 25.2192 28.917 25.2192 25.2826C25.2192 21.6483 28.1688 18.6987 31.8031 18.6987C35.4375 18.6987 38.3872 21.6483 38.3872 25.2826Z" fill="#1ABCFE"/>
</g>
</svg>
